<svg xmlns="http://www.w3.org/2000/svg" xmlns:xlink="http://www.w3.org/1999/xlink" width="500" zoomAndPan="magnify" viewBox="0 0 375 374.999991" height="500" preserveAspectRatio="xMidYMid meet" version="1.0"><defs><g/><clipPath id="76ef388717"><path d="M 55 137 L 113 137 L 113 174 L 55 174 Z M 55 137 " clip-rule="nonzero"/></clipPath><clipPath id="617f28eb86"><path d="M 53.8125 140.523438 L 110.542969 135.449219 L 113.695312 170.699219 L 56.964844 175.773438 Z M 53.8125 140.523438 " clip-rule="nonzero"/></clipPath><clipPath id="12d6aa0d2f"><path d="M 82.125 137.988281 C 66.488281 139.386719 54.515625 148.414062 55.386719 158.148438 C 56.257812 167.882812 69.640625 174.636719 85.28125 173.238281 C 100.917969 171.839844 112.890625 162.816406 112.019531 153.082031 C 111.148438 143.347656 97.765625 136.589844 82.125 137.988281 Z M 82.125 137.988281 " clip-rule="nonzero"/></clipPath><clipPath id="cfed296c4d"><path d="M 54 164 L 116 164 L 116 209 L 54 209 Z M 54 164 " clip-rule="nonzero"/></clipPath><clipPath id="f94dc015fc"><path d="M 55.941406 162.859375 L 116.390625 165.789062 L 114.261719 209.753906 L 53.8125 206.824219 Z M 55.941406 162.859375 " clip-rule="nonzero"/></clipPath><clipPath id="5734a93639"><path d="M 86.128906 164.324219 C 69.457031 163.515625 55.464844 172.703125 54.875 184.84375 C 54.289062 196.984375 67.328125 207.480469 84 208.285156 C 100.671875 209.09375 114.664062 199.90625 115.253906 187.765625 C 115.839844 175.625 102.800781 165.128906 86.128906 164.324219 Z M 86.128906 164.324219 " clip-rule="nonzero"/></clipPath><clipPath id="7295a596fb"><path d="M 61 132 L 110 132 L 110 176 L 61 176 Z M 61 132 " clip-rule="nonzero"/></clipPath><clipPath id="1d9e1f6824"><path d="M 115.324219 162.253906 L 63.902344 182.554688 L 49.847656 146.957031 L 101.269531 126.652344 Z M 115.324219 162.253906 " clip-rule="nonzero"/></clipPath><clipPath id="fcc941a7c6"><path d="M 115.324219 162.253906 L 63.902344 182.554688 L 49.847656 146.957031 L 101.269531 126.652344 Z M 115.324219 162.253906 " clip-rule="nonzero"/></clipPath><clipPath id="4b541dea7e"><path d="M 61 145 L 95 145 L 95 176 L 61 176 Z M 61 145 " clip-rule="nonzero"/></clipPath><clipPath id="34042dbeba"><path d="M 115.324219 162.253906 L 63.902344 182.554688 L 49.847656 146.957031 L 101.269531 126.652344 Z M 115.324219 162.253906 " clip-rule="nonzero"/></clipPath><clipPath id="0d91014b00"><path d="M 115.324219 162.253906 L 63.902344 182.554688 L 49.847656 146.957031 L 101.269531 126.652344 Z M 115.324219 162.253906 " clip-rule="nonzero"/></clipPath><clipPath id="48ea9228e7"><path d="M 61 173 L 112 173 L 112 213 L 61 213 Z M 61 173 " clip-rule="nonzero"/></clipPath><clipPath id="dba2b9dc60"><path d="M 90.582031 221.410156 L 55.457031 178.714844 L 85.015625 154.398438 L 120.140625 197.09375 Z M 90.582031 221.410156 " clip-rule="nonzero"/></clipPath><clipPath id="17326f3bef"><path d="M 90.582031 221.410156 L 55.457031 178.714844 L 85.015625 154.398438 L 120.140625 197.09375 Z M 90.582031 221.410156 " clip-rule="nonzero"/></clipPath><clipPath id="87ced9c0be"><path d="M 61 173 L 96 173 L 96 202 L 61 202 Z M 61 173 " clip-rule="nonzero"/></clipPath><clipPath id="18ad198cde"><path d="M 90.582031 221.410156 L 55.457031 178.714844 L 85.015625 154.398438 L 120.140625 197.09375 Z M 90.582031 221.410156 " clip-rule="nonzero"/></clipPath><clipPath id="bd7bef4eda"><path d="M 90.582031 221.410156 L 55.457031 178.714844 L 85.015625 154.398438 L 120.140625 197.09375 Z M 90.582031 221.410156 " clip-rule="nonzero"/></clipPath><clipPath id="d74253511f"><path d="M 59.855469 130.175781 L 69.933594 130.175781 L 69.933594 218.023438 L 59.855469 218.023438 Z M 59.855469 130.175781 " clip-rule="nonzero"/></clipPath><clipPath id="92eb9dee34"><path d="M 66 163 L 77 163 L 77 176 L 66 176 Z M 66 163 " clip-rule="nonzero"/></clipPath><clipPath id="ab97eb07f1"><path d="M 78.839844 173.839844 L 67.996094 175.996094 L 65.839844 165.152344 L 76.683594 162.996094 Z M 78.839844 173.839844 " clip-rule="nonzero"/></clipPath><clipPath id="cadb883ac8"><path d="M 67.933594 176.011719 L 78.777344 173.851562 L 76.617188 163.007812 L 65.773438 165.167969 Z M 67.933594 176.011719 " clip-rule="nonzero"/></clipPath><clipPath id="324655a80d"><path d="M 65 163 L 77 163 L 77 176 L 65 176 Z M 65 163 " clip-rule="nonzero"/></clipPath><clipPath id="991ba8b093"><path d="M 78.839844 173.839844 L 67.996094 175.996094 L 65.839844 165.152344 L 76.683594 162.996094 Z M 78.839844 173.839844 " clip-rule="nonzero"/></clipPath><clipPath id="f9dae4aa1d"><path d="M 67.933594 176.011719 L 78.777344 173.851562 L 76.617188 163.007812 L 65.773438 165.167969 Z M 67.933594 176.011719 " clip-rule="nonzero"/></clipPath><clipPath id="9e15ad7e1c"><path d="M 66 170 L 77 170 L 77 182 L 66 182 Z M 66 170 " clip-rule="nonzero"/></clipPath><clipPath id="0f35d6bd02"><path d="M 67.34375 169.828125 L 78.328125 171.121094 L 77.035156 182.101562 L 66.054688 180.8125 Z M 67.34375 169.828125 " clip-rule="nonzero"/></clipPath><clipPath id="2bf140bf53"><path d="M 67.34375 169.828125 L 78.328125 171.121094 L 77.035156 182.101562 L 66.054688 180.8125 Z M 67.34375 169.828125 " clip-rule="nonzero"/></clipPath><clipPath id="482f27b702"><path d="M 66 169 L 78 169 L 78 183 L 66 183 Z M 66 169 " clip-rule="nonzero"/></clipPath><clipPath id="a2fc8bbabc"><path d="M 67.34375 169.828125 L 78.328125 171.121094 L 77.035156 182.101562 L 66.054688 180.8125 Z M 67.34375 169.828125 " clip-rule="nonzero"/></clipPath><clipPath id="587a21b94c"><path d="M 67.34375 169.828125 L 78.328125 171.121094 L 77.035156 182.101562 L 66.054688 180.8125 Z M 67.34375 169.828125 " clip-rule="nonzero"/></clipPath><clipPath id="3bb8567f95"><path d="M 305 90 L 327 90 L 327 114 L 305 114 Z M 305 90 " clip-rule="nonzero"/></clipPath><clipPath id="1d817dcae4"><path d="M 332.308594 120.472656 L 270.871094 106.511719 L 282.339844 56.046875 L 343.773438 70.007812 Z M 332.308594 120.472656 " clip-rule="nonzero"/></clipPath><clipPath id="51ace52506"><path d="M 332.308594 120.472656 L 270.871094 106.511719 L 282.339844 56.046875 L 343.773438 70.007812 Z M 332.308594 120.472656 " clip-rule="nonzero"/></clipPath><clipPath id="78261fe3de"><path d="M 300 62 L 320 62 L 320 87 L 300 87 Z M 300 62 " clip-rule="nonzero"/></clipPath><clipPath id="b203ae7c80"><path d="M 332.308594 120.472656 L 270.871094 106.511719 L 282.339844 56.046875 L 343.773438 70.007812 Z M 332.308594 120.472656 " clip-rule="nonzero"/></clipPath><clipPath id="4738fdaf55"><path d="M 332.308594 120.472656 L 270.871094 106.511719 L 282.339844 56.046875 L 343.773438 70.007812 Z M 332.308594 120.472656 " clip-rule="nonzero"/></clipPath><clipPath id="092dc08650"><path d="M 300 62 L 320 62 L 320 87 L 300 87 Z M 300 62 " clip-rule="nonzero"/></clipPath><clipPath id="34e1616c1c"><path d="M 332.308594 120.472656 L 270.871094 106.511719 L 282.339844 56.046875 L 343.773438 70.007812 Z M 332.308594 120.472656 " clip-rule="nonzero"/></clipPath><clipPath id="8f561294e9"><path d="M 332.308594 120.472656 L 270.871094 106.511719 L 282.339844 56.046875 L 343.773438 70.007812 Z M 332.308594 120.472656 " clip-rule="nonzero"/></clipPath><clipPath id="ce5f818b41"><path d="M 315.261719 88.730469 L 297.671875 84.734375 L 303.183594 60.476562 L 320.777344 64.472656 Z M 315.261719 88.730469 " clip-rule="nonzero"/></clipPath><clipPath id="bd4171f309"><path d="M 311 75 L 336 75 L 336 94 L 311 94 Z M 311 75 " clip-rule="nonzero"/></clipPath><clipPath id="5c65f85ee6"><path d="M 332.308594 120.472656 L 270.871094 106.511719 L 282.339844 56.046875 L 343.773438 70.007812 Z M 332.308594 120.472656 " clip-rule="nonzero"/></clipPath><clipPath id="3da93d83d6"><path d="M 332.308594 120.472656 L 270.871094 106.511719 L 282.339844 56.046875 L 343.773438 70.007812 Z M 332.308594 120.472656 " clip-rule="nonzero"/></clipPath><clipPath id="56d5365b61"><path d="M 284 88 L 307 88 L 307 112 L 284 112 Z M 284 88 " clip-rule="nonzero"/></clipPath><clipPath id="851383cb66"><path d="M 332.308594 120.472656 L 270.871094 106.511719 L 282.339844 56.046875 L 343.773438 70.007812 Z M 332.308594 120.472656 " clip-rule="nonzero"/></clipPath><clipPath id="90fec312a4"><path d="M 332.308594 120.472656 L 270.871094 106.511719 L 282.339844 56.046875 L 343.773438 70.007812 Z M 332.308594 120.472656 " clip-rule="nonzero"/></clipPath><clipPath id="9be27784fc"><path d="M 280 70 L 305 70 L 305 90 L 280 90 Z M 280 70 " clip-rule="nonzero"/></clipPath><clipPath id="fb4ca8f240"><path d="M 332.308594 120.472656 L 270.871094 106.511719 L 282.339844 56.046875 L 343.773438 70.007812 Z M 332.308594 120.472656 " clip-rule="nonzero"/></clipPath><clipPath id="faf8dc8bae"><path d="M 332.308594 120.472656 L 270.871094 106.511719 L 282.339844 56.046875 L 343.773438 70.007812 Z M 332.308594 120.472656 " clip-rule="nonzero"/></clipPath><clipPath id="6892f53628"><path d="M 300 82 L 314 82 L 314 96 L 300 96 Z M 300 82 " clip-rule="nonzero"/></clipPath><clipPath id="d9ab9cc444"><path d="M 332.308594 120.472656 L 270.871094 106.511719 L 282.339844 56.046875 L 343.773438 70.007812 Z M 332.308594 120.472656 " clip-rule="nonzero"/></clipPath><clipPath id="df01aebaad"><path d="M 332.308594 120.472656 L 270.871094 106.511719 L 282.339844 56.046875 L 343.773438 70.007812 Z M 332.308594 120.472656 " clip-rule="nonzero"/></clipPath></defs><g fill="#f47cb9" fill-opacity="1"><g transform="translate(42.941356, 221.712908)"><g><path d="M 11.90625 -49.203125 C 11.90625 -56.347656 11.738281 -63.003906 11.40625 -69.171875 C 11.082031 -75.347656 10.296875 -80.910156 9.046875 -85.859375 C 7.804688 -90.816406 5.773438 -95 2.953125 -98.40625 C 12.003906 -98.40625 21.023438 -98.71875 30.015625 -99.34375 C 39.003906 -99.96875 47.992188 -100.28125 56.984375 -100.28125 C 63.671875 -100.28125 69.242188 -99.242188 73.703125 -97.171875 C 78.160156 -95.109375 81.503906 -92.335938 83.734375 -88.859375 C 85.972656 -85.378906 87.09375 -81.507812 87.09375 -77.25 C 87.09375 -73.375 86.300781 -70.039062 84.71875 -67.25 C 83.144531 -64.46875 81.113281 -62.15625 78.625 -60.3125 C 76.132812 -58.476562 73.492188 -57.019531 70.703125 -55.9375 C 67.910156 -54.851562 65.269531 -54.050781 62.78125 -53.53125 C 60.289062 -53.007812 58.238281 -52.664062 56.625 -52.5 C 55.019531 -52.332031 54.1875 -52.25 54.125 -52.25 C 57.144531 -52.382812 60.425781 -52.269531 63.96875 -51.90625 C 67.507812 -51.550781 71.035156 -50.8125 74.546875 -49.6875 C 78.054688 -48.570312 81.269531 -47.015625 84.1875 -45.015625 C 87.101562 -43.015625 89.429688 -40.472656 91.171875 -37.390625 C 92.910156 -34.304688 93.78125 -30.535156 93.78125 -26.078125 C 93.78125 -19.910156 92.285156 -14.757812 89.296875 -10.625 C 86.316406 -6.488281 82.25 -3.367188 77.09375 -1.265625 C 71.945312 0.828125 66.09375 1.875 59.53125 1.875 C 50.082031 1.875 40.648438 1.5625 31.234375 0.9375 C 21.828125 0.3125 12.398438 0 2.953125 0 C 5.773438 -3.40625 7.804688 -7.582031 9.046875 -12.53125 C 10.296875 -17.488281 11.082031 -23.066406 11.40625 -29.265625 C 11.738281 -35.472656 11.90625 -42.117188 11.90625 -49.203125 Z M 44.28125 -49.203125 L 18.296875 -49.203125 L 18.296875 -24.703125 C 22.566406 -23.847656 27.320312 -23.125 32.5625 -22.53125 C 37.8125 -21.945312 43.195312 -21.65625 48.71875 -21.65625 C 52.78125 -21.65625 56.453125 -22.046875 59.734375 -22.828125 C 63.015625 -23.617188 65.617188 -24.976562 67.546875 -26.90625 C 69.484375 -28.84375 70.453125 -31.453125 70.453125 -34.734375 C 70.453125 -37.878906 69.566406 -40.421875 67.796875 -42.359375 C 66.023438 -44.296875 63.78125 -45.753906 61.0625 -46.734375 C 58.34375 -47.722656 55.488281 -48.378906 52.5 -48.703125 C 49.507812 -49.035156 46.769531 -49.203125 44.28125 -49.203125 Z M 18.296875 -54.515625 C 21.648438 -54.515625 25.40625 -54.5 29.5625 -54.46875 C 33.726562 -54.4375 37.941406 -54.550781 42.203125 -54.8125 C 46.472656 -55.070312 50.394531 -55.644531 53.96875 -56.53125 C 57.550781 -57.414062 60.441406 -58.757812 62.640625 -60.5625 C 64.835938 -62.375 65.9375 -64.785156 65.9375 -67.796875 C 65.9375 -70.359375 65.226562 -72.257812 63.8125 -73.5 C 62.40625 -74.75 60.40625 -75.554688 57.8125 -75.921875 C 55.21875 -76.285156 52.148438 -76.46875 48.609375 -76.46875 C 44.546875 -76.46875 39.90625 -76.347656 34.6875 -76.109375 C 29.46875 -75.878906 24.003906 -75.765625 18.296875 -75.765625 Z M 18.296875 -54.515625 "/></g></g></g><g fill="#f47cb9" fill-opacity="1"><g transform="translate(139.67084, 221.712908)"><g><path d="M 2.953125 -98.40625 L 43.890625 -98.40625 C 37.921875 -91.125 33.539062 -83.398438 30.75 -75.234375 C 27.957031 -67.066406 26.5625 -58.390625 26.5625 -49.203125 C 26.5625 -40.085938 27.957031 -31.425781 30.75 -23.21875 C 33.539062 -15.019531 37.921875 -7.28125 43.890625 0 L 2.953125 0 C 8.984375 -7.28125 13.375 -15.019531 16.125 -23.21875 C 18.882812 -31.425781 20.265625 -40.085938 20.265625 -49.203125 C 20.265625 -58.390625 18.882812 -67.066406 16.125 -75.234375 C 13.375 -83.398438 8.984375 -91.125 2.953125 -98.40625 Z M 2.953125 -98.40625 "/></g></g></g><g fill="#f47cb9" fill-opacity="1"><g transform="translate(186.510347, 221.712908)"><g><path d="M 2.453125 0 C 5.273438 -3.40625 7.3125 -7.582031 8.5625 -12.53125 C 9.8125 -17.488281 10.597656 -23.066406 10.921875 -29.265625 C 11.253906 -35.472656 11.421875 -42.117188 11.421875 -49.203125 C 11.421875 -56.347656 11.253906 -63.003906 10.921875 -69.171875 C 10.597656 -75.347656 9.8125 -80.910156 8.5625 -85.859375 C 7.3125 -90.816406 5.273438 -95 2.453125 -98.40625 L 41.828125 -98.40625 C 39.203125 -95.78125 37.445312 -92.828125 36.5625 -89.546875 C 35.675781 -86.265625 35.492188 -82.820312 36.015625 -79.21875 C 36.535156 -75.613281 37.582031 -72.019531 39.15625 -68.4375 C 40.738281 -64.863281 42.675781 -61.4375 44.96875 -58.15625 C 47.269531 -54.875 49.734375 -51.890625 52.359375 -49.203125 L 78.53125 -22.640625 L 78.53125 -49.203125 C 78.53125 -54.972656 77.660156 -60.351562 75.921875 -65.34375 C 74.179688 -70.332031 71.882812 -74.90625 69.03125 -79.0625 C 66.175781 -83.226562 63.078125 -86.9375 59.734375 -90.1875 C 56.390625 -93.4375 53.078125 -96.175781 49.796875 -98.40625 L 93.875 -98.40625 C 91.050781 -95 89.015625 -90.816406 87.765625 -85.859375 C 86.523438 -80.910156 85.738281 -75.347656 85.40625 -69.171875 C 85.082031 -63.003906 84.921875 -56.347656 84.921875 -49.203125 C 84.921875 -42.117188 85.082031 -35.472656 85.40625 -29.265625 C 85.738281 -23.066406 86.523438 -17.488281 87.765625 -12.53125 C 89.015625 -7.582031 91.050781 -3.40625 93.875 0 L 54.421875 0 C 57.046875 -2.625 58.800781 -5.578125 59.6875 -8.859375 C 60.570312 -12.140625 60.765625 -15.582031 60.265625 -19.1875 C 59.773438 -22.800781 58.742188 -26.394531 57.171875 -29.96875 C 55.597656 -33.539062 53.660156 -36.984375 51.359375 -40.296875 C 49.066406 -43.609375 46.609375 -46.578125 43.984375 -49.203125 L 17.8125 -75.765625 L 17.8125 -49.203125 C 17.8125 -43.429688 18.679688 -38.050781 20.421875 -33.0625 C 22.160156 -28.070312 24.457031 -23.492188 27.3125 -19.328125 C 30.164062 -15.171875 33.28125 -11.46875 36.65625 -8.21875 C 40.03125 -4.96875 43.328125 -2.226562 46.546875 0 Z M 2.453125 0 "/></g></g></g><g fill="#f47cb9" fill-opacity="1"><g transform="translate(285.207887, 221.712908)"><g><path d="M 2.953125 -98.40625 L 43.890625 -98.40625 C 37.921875 -91.125 33.539062 -83.398438 30.75 -75.234375 C 27.957031 -67.066406 26.5625 -58.390625 26.5625 -49.203125 C 26.5625 -40.085938 27.957031 -31.425781 30.75 -23.21875 C 33.539062 -15.019531 37.921875 -7.28125 43.890625 0 L 2.953125 0 C 8.984375 -7.28125 13.375 -15.019531 16.125 -23.21875 C 18.882812 -31.425781 20.265625 -40.085938 20.265625 -49.203125 C 20.265625 -58.390625 18.882812 -67.066406 16.125 -75.234375 C 13.375 -83.398438 8.984375 -91.125 2.953125 -98.40625 Z M 2.953125 -98.40625 "/></g></g></g><g clip-path="url(#76ef388717)"><g clip-path="url(#617f28eb86)"><g clip-path="url(#12d6aa0d2f)"><path fill="#f47cb9" d="M 53.8125 140.523438 L 110.402344 135.460938 L 113.554688 170.710938 L 56.964844 175.773438 Z M 53.8125 140.523438 " fill-opacity="1" fill-rule="nonzero"/></g></g></g><g clip-path="url(#cfed296c4d)"><g clip-path="url(#f94dc015fc)"><g clip-path="url(#5734a93639)"><path fill="#f47cb9" d="M 55.941406 162.859375 L 116.390625 165.789062 L 114.261719 209.753906 L 53.8125 206.824219 Z M 55.941406 162.859375 " fill-opacity="1" fill-rule="nonzero"/></g></g></g><g clip-path="url(#7295a596fb)"><g clip-path="url(#1d9e1f6824)"><g clip-path="url(#fcc941a7c6)"><path fill="#f9e7e5" d="M 86.753906 133.121094 C 89.242188 132.625 91.832031 132.875 94.375 133.75 C 95.746094 134.191406 96.796875 135.035156 97.519531 136.277344 C 97.597656 136.414062 97.6875 136.546875 97.765625 136.683594 C 98.058594 137.207031 98.484375 137.503906 99.101562 137.488281 C 100.125 137.457031 100.894531 137.929688 101.554688 138.675781 C 102.417969 139.625 102.90625 140.738281 103.027344 142.015625 C 103.078125 142.585938 103.195312 143.140625 103.375 143.683594 C 103.492188 144.058594 103.691406 144.382812 103.96875 144.65625 C 104.25 144.929688 104.578125 145.121094 104.957031 145.230469 C 105.140625 145.289062 105.335938 145.332031 105.527344 145.378906 C 105.753906 145.433594 105.988281 145.46875 106.214844 145.535156 C 108.574219 146.1875 109.53125 147.554688 109.453125 149.933594 C 109.40625 151.453125 108.917969 152.867188 108.222656 154.207031 C 107.105469 156.339844 105.757812 158.316406 104.175781 160.136719 C 101.878906 162.808594 99.414062 165.316406 96.78125 167.660156 C 94.207031 169.949219 91.261719 171.601562 88.109375 172.933594 C 85.035156 174.214844 81.832031 174.8125 78.5 174.71875 C 75.828125 174.667969 73.152344 174.652344 70.480469 174.714844 C 68.222656 174.769531 65.980469 175.113281 63.738281 175.464844 C 63.195312 175.550781 62.648438 175.628906 62.101562 175.667969 C 61.550781 175.707031 61.292969 175.390625 61.441406 174.847656 C 62.21875 172.027344 62.886719 169.171875 63.828125 166.398438 C 65.058594 162.78125 66.183594 159.140625 67.398438 155.527344 C 68.890625 151.15625 70.832031 146.996094 73.21875 143.042969 C 74.996094 140.066406 77.261719 137.535156 80.226562 135.671875 C 82.191406 134.433594 84.285156 133.519531 86.753906 133.121094 Z M 86.753906 133.121094 " fill-opacity="1" fill-rule="nonzero"/></g></g></g><g clip-path="url(#4b541dea7e)"><g clip-path="url(#34042dbeba)"><g clip-path="url(#0d91014b00)"><path fill="#f9e7e5" d="M 77.261719 149.816406 C 77.457031 149.757812 77.628906 149.652344 77.773438 149.503906 C 78.84375 148.6875 80.011719 148.050781 81.277344 147.589844 C 81.707031 147.441406 82.144531 147.34375 82.597656 147.292969 C 83.769531 147.167969 84.566406 148.007812 84.390625 149.179688 C 84.28125 149.722656 84.074219 150.230469 83.769531 150.695312 C 83.714844 150.796875 83.625 150.886719 83.644531 151.0625 C 84.007812 150.902344 84.359375 150.742188 84.710938 150.59375 C 86.554688 149.832031 88.472656 149.464844 90.464844 149.488281 C 90.601562 149.488281 90.738281 149.5 90.875 149.523438 C 92.613281 149.699219 93.707031 150.75 93.972656 152.476562 C 94.101562 153.445312 93.914062 154.347656 93.417969 155.1875 C 92.8125 156.292969 91.941406 157.171875 91.027344 158.015625 C 90.699219 158.320312 90.359375 158.613281 89.925781 159.003906 C 90.183594 159.007812 90.328125 159.015625 90.46875 159.019531 C 90.921875 159.019531 91.371094 159.078125 91.808594 159.195312 C 92.230469 159.300781 92.613281 159.480469 92.964844 159.730469 C 93.316406 159.984375 93.609375 160.292969 93.84375 160.65625 C 94.078125 161.023438 94.238281 161.417969 94.320312 161.839844 C 94.402344 162.265625 94.40625 162.691406 94.324219 163.117188 C 94.171875 164.039062 93.851562 164.902344 93.359375 165.699219 C 92.574219 166.996094 91.679688 168.21875 90.683594 169.363281 C 89.171875 171.074219 87.355469 172.347656 85.230469 173.183594 C 84.421875 173.546875 83.597656 173.867188 82.757812 174.140625 C 81.457031 174.527344 80.132812 174.625 78.785156 174.433594 C 76.785156 174.164062 74.789062 174.207031 72.796875 174.5625 C 72.097656 174.675781 71.394531 174.757812 70.691406 174.835938 C 69.175781 175.007812 67.664062 175.320312 66.164062 175.644531 C 65.175781 175.847656 64.179688 175.90625 63.171875 175.816406 C 62.996094 175.804688 62.820312 175.78125 62.644531 175.746094 C 61.890625 175.574219 61.519531 175.070312 61.578125 174.289062 C 61.648438 173.683594 61.773438 173.089844 61.960938 172.507812 C 63.039062 168.542969 64.195312 164.601562 65.34375 160.660156 C 65.847656 158.925781 66.3125 157.175781 66.855469 155.453125 C 67.117188 154.542969 67.480469 153.671875 67.941406 152.84375 C 68.105469 152.566406 68.101562 152.246094 68.261719 151.964844 C 69.5 149.703125 71.171875 147.871094 73.429688 146.597656 C 74.011719 146.25 74.640625 146.039062 75.316406 145.960938 C 76.625 145.828125 77.382812 146.449219 77.503906 147.757812 C 77.523438 148.253906 77.472656 148.738281 77.351562 149.21875 C 77.316406 149.40625 77.21875 149.585938 77.261719 149.816406 Z M 77.261719 149.816406 " fill-opacity="1" fill-rule="nonzero"/></g></g></g><g clip-path="url(#48ea9228e7)"><g clip-path="url(#dba2b9dc60)"><g clip-path="url(#17326f3bef)"><path fill="#f9e7e5" d="M 109.523438 185.265625 C 110.761719 187.484375 111.316406 190.023438 111.265625 192.714844 C 111.269531 194.152344 110.789062 195.410156 109.828125 196.480469 C 109.722656 196.597656 109.625 196.726562 109.519531 196.839844 C 109.109375 197.277344 108.957031 197.777344 109.164062 198.355469 C 109.503906 199.324219 109.292969 200.199219 108.785156 201.058594 C 108.148438 202.171875 107.238281 202.980469 106.0625 203.484375 C 105.535156 203.710938 105.042969 203.992188 104.582031 204.332031 C 104.261719 204.558594 104.011719 204.84375 103.839844 205.195312 C 103.664062 205.546875 103.582031 205.917969 103.59375 206.308594 C 103.59375 206.503906 103.613281 206.703125 103.628906 206.898438 C 103.648438 207.132812 103.683594 207.367188 103.691406 207.601562 C 103.792969 210.046875 102.789062 211.378906 100.5 212.035156 C 99.042969 212.457031 97.546875 212.429688 96.054688 212.179688 C 93.683594 211.769531 91.386719 211.09375 89.171875 210.148438 C 85.921875 208.78125 82.777344 207.207031 79.738281 205.425781 C 76.769531 203.679688 74.289062 201.386719 72.054688 198.792969 C 69.890625 196.261719 68.339844 193.398438 67.402344 190.199219 C 66.628906 187.640625 65.824219 185.085938 64.941406 182.5625 C 64.195312 180.433594 63.179688 178.402344 62.152344 176.378906 C 61.90625 175.886719 61.664062 175.394531 61.457031 174.882812 C 61.253906 174.375 61.472656 174.03125 62.035156 174.003906 C 64.960938 173.878906 67.882812 173.636719 70.808594 173.675781 C 74.628906 173.738281 78.441406 173.6875 82.253906 173.734375 C 86.871094 173.8125 91.425781 174.378906 95.921875 175.4375 C 99.300781 176.210938 102.40625 177.589844 105.089844 179.839844 C 106.871094 181.328125 108.382812 183.039062 109.523438 185.265625 Z M 109.523438 185.265625 " fill-opacity="1" fill-rule="nonzero"/></g></g></g><g clip-path="url(#87ced9c0be)"><g clip-path="url(#18ad198cde)"><g clip-path="url(#bd7bef4eda)"><path fill="#f9e7e5" d="M 90.71875 181.363281 C 90.835938 181.535156 90.988281 181.664062 91.171875 181.753906 C 92.277344 182.523438 93.246094 183.441406 94.070312 184.503906 C 94.34375 184.863281 94.574219 185.253906 94.761719 185.667969 C 95.242188 186.742188 94.6875 187.761719 93.519531 187.953125 C 92.964844 188.019531 92.417969 187.976562 91.882812 187.828125 C 91.769531 187.804688 91.65625 187.746094 91.496094 187.820312 C 91.757812 188.121094 92.019531 188.402344 92.269531 188.695312 C 93.558594 190.214844 94.5 191.925781 95.089844 193.828125 C 95.128906 193.957031 95.160156 194.09375 95.179688 194.230469 C 95.546875 195.9375 94.886719 197.304688 93.324219 198.085938 C 92.441406 198.503906 91.523438 198.605469 90.570312 198.390625 C 89.335938 198.152344 88.230469 197.59375 87.148438 196.984375 C 86.757812 196.765625 86.375 196.53125 85.867188 196.238281 C 85.941406 196.488281 85.980469 196.625 86.019531 196.761719 C 86.160156 197.191406 86.242188 197.636719 86.265625 198.089844 C 86.292969 198.523438 86.242188 198.945312 86.109375 199.355469 C 85.976562 199.769531 85.773438 200.144531 85.5 200.476562 C 85.222656 200.8125 84.898438 201.085938 84.519531 201.292969 C 84.140625 201.503906 83.734375 201.636719 83.304688 201.691406 C 82.378906 201.828125 81.464844 201.789062 80.554688 201.566406 C 79.078125 201.214844 77.640625 200.742188 76.242188 200.144531 C 74.148438 199.234375 72.378906 197.894531 70.929688 196.128906 C 70.335938 195.472656 69.78125 194.785156 69.261719 194.070312 C 68.492188 192.949219 67.992188 191.722656 67.761719 190.382812 C 67.402344 188.394531 66.746094 186.507812 65.800781 184.722656 C 65.476562 184.09375 65.183594 183.449219 64.890625 182.804688 C 64.261719 181.410156 63.5 180.070312 62.730469 178.742188 C 62.230469 177.863281 61.871094 176.933594 61.648438 175.949219 C 61.601562 175.777344 61.570312 175.601562 61.554688 175.425781 C 61.484375 174.652344 61.851562 174.148438 62.609375 173.960938 C 63.207031 173.839844 63.8125 173.78125 64.421875 173.78125 C 68.527344 173.585938 72.632812 173.476562 76.734375 173.355469 C 78.542969 173.304688 80.347656 173.207031 82.15625 173.195312 C 83.105469 173.164062 84.042969 173.242188 84.972656 173.425781 C 85.289062 173.5 85.589844 173.398438 85.910156 173.460938 C 88.441406 173.941406 90.699219 174.972656 92.605469 176.726562 C 93.113281 177.179688 93.507812 177.710938 93.789062 178.328125 C 94.320312 179.53125 93.960938 180.445312 92.753906 180.960938 C 92.289062 181.132812 91.808594 181.234375 91.316406 181.265625 C 91.125 181.292969 90.925781 181.25 90.71875 181.363281 Z M 90.71875 181.363281 " fill-opacity="1" fill-rule="nonzero"/></g></g></g><g clip-path="url(#d74253511f)"><path fill="#f47cb9" d="M 59.855469 130.175781 L 69.933594 130.175781 L 69.933594 218.015625 L 59.855469 218.015625 Z M 59.855469 130.175781 " fill-opacity="1" fill-rule="nonzero"/></g><g clip-path="url(#92eb9dee34)"><g clip-path="url(#ab97eb07f1)"><g clip-path="url(#cadb883ac8)"><path fill="#f47cb9" d="M 68.144531 175.652344 L 66.082031 165.285156 L 76.445312 163.222656 Z M 68.144531 175.652344 " fill-opacity="1" fill-rule="nonzero"/></g></g></g><g clip-path="url(#324655a80d)"><g clip-path="url(#991ba8b093)"><g clip-path="url(#f9dae4aa1d)"><path fill="#f47cb9" d="M 76.398438 162.984375 L 66.03125 165.046875 C 65.863281 165.082031 65.78125 165.203125 65.808594 165.339844 L 67.871094 175.703125 C 67.890625 175.804688 67.980469 175.894531 68.089844 175.910156 C 68.167969 175.964844 68.300781 175.902344 68.351562 175.820312 L 76.65625 163.390625 C 76.710938 163.3125 76.726562 163.203125 76.671875 163.105469 C 76.582031 163.019531 76.5 162.964844 76.398438 162.984375 Z M 66.371094 165.507812 L 75.855469 163.621094 L 68.257812 174.992188 Z M 66.371094 165.507812 " fill-opacity="1" fill-rule="nonzero"/></g></g></g><g clip-path="url(#9e15ad7e1c)"><g clip-path="url(#0f35d6bd02)"><g clip-path="url(#2bf140bf53)"><path fill="#f47cb9" d="M 67.582031 170.171875 L 66.351562 180.667969 L 76.847656 181.902344 Z M 67.582031 170.171875 " fill-opacity="1" fill-rule="nonzero"/></g></g></g><g clip-path="url(#482f27b702)"><g clip-path="url(#a2fc8bbabc)"><g clip-path="url(#587a21b94c)"><path fill="#f47cb9" d="M 76.820312 182.140625 L 66.324219 180.910156 C 66.152344 180.890625 66.058594 180.773438 66.074219 180.636719 L 67.308594 170.140625 C 67.320312 170.035156 67.402344 169.941406 67.507812 169.917969 C 67.585938 169.859375 67.71875 169.910156 67.78125 169.984375 L 77.042969 181.714844 C 77.105469 181.792969 77.128906 181.898438 77.082031 182 C 77 182.09375 76.921875 182.15625 76.820312 182.140625 Z M 66.625 180.421875 L 76.226562 181.550781 L 67.753906 170.820312 Z M 66.625 180.421875 " fill-opacity="1" fill-rule="nonzero"/></g></g></g><g clip-path="url(#3bb8567f95)"><g clip-path="url(#1d817dcae4)"><g clip-path="url(#51ace52506)"><path fill="#f47cb9" d="M 313.007812 90.542969 C 317.085938 91.46875 321.753906 94.9375 325.496094 99.824219 C 327.339844 102.226562 327.355469 105.226562 325.542969 108.054688 C 324.449219 109.761719 322.804688 111.222656 320.910156 112.167969 C 318.945312 113.152344 316.890625 113.476562 315.125 113.074219 C 313.636719 112.734375 312.382812 111.914062 311.398438 110.628906 C 305.523438 102.964844 303.90625 94.304688 307.792969 91.324219 C 309.085938 90.332031 310.890625 90.0625 313.007812 90.542969 " fill-opacity="1" fill-rule="nonzero"/><path fill="#f47cb9" d="M 315.113281 113.128906 C 321.652344 114.613281 330.398438 106.125 325.542969 99.789062 C 321.679688 94.75 316.9375 91.378906 313.023438 90.488281 C 310.953125 90.019531 309.113281 90.242188 307.757812 91.28125 C 303.839844 94.285156 305.453125 102.960938 311.355469 110.664062 C 312.402344 112.027344 313.707031 112.808594 315.113281 113.128906 Z M 315.113281 113.128906 L 315.136719 113.019531 C 313.664062 112.683594 312.417969 111.867188 311.445312 110.597656 C 308.597656 106.886719 306.660156 102.835938 305.984375 99.191406 C 305.3125 95.574219 305.964844 92.796875 307.824219 91.371094 C 309.105469 90.386719 310.894531 90.121094 312.996094 90.597656 C 314.9375 91.039062 317.09375 92.101562 319.234375 93.671875 C 321.445312 95.296875 323.597656 97.433594 325.453125 99.855469 C 326.414062 101.109375 326.878906 102.503906 326.835938 103.988281 C 326.796875 105.324219 326.332031 106.71875 325.496094 108.023438 C 324.410156 109.722656 322.769531 111.175781 320.886719 112.121094 C 318.933594 113.097656 316.890625 113.417969 315.136719 113.019531 L 315.113281 113.128906 " fill-opacity="1" fill-rule="nonzero"/></g></g></g><g clip-path="url(#78261fe3de)"><g clip-path="url(#b203ae7c80)"><g clip-path="url(#4738fdaf55)"><path fill="#f47cb9" d="M 311.972656 62.53125 C 314.246094 63.046875 316.21875 64.15625 317.53125 65.648438 C 319.011719 67.332031 319.527344 69.367188 319.035156 71.542969 C 316.894531 80.960938 311.269531 87.742188 306.492188 86.65625 C 301.71875 85.570312 299.574219 77.023438 301.714844 67.605469 C 302.207031 65.433594 303.554688 63.820312 305.613281 62.941406 C 307.445312 62.160156 309.703125 62.015625 311.972656 62.53125 " fill-opacity="1" fill-rule="nonzero"/></g></g></g><g clip-path="url(#092dc08650)"><g clip-path="url(#34e1616c1c)"><g clip-path="url(#8f561294e9)"><g clip-path="url(#ce5f818b41)"><path fill="#f47cb9" d="M 306.480469 86.710938 C 311.292969 87.804688 316.9375 81.019531 319.089844 71.554688 C 320.164062 66.824219 316.34375 63.46875 311.988281 62.476562 C 307.628906 61.488281 302.734375 62.863281 301.660156 67.59375 C 299.507812 77.058594 301.667969 85.617188 306.480469 86.710938 Z M 306.503906 86.601562 C 301.757812 85.523438 299.632812 77.007812 301.765625 67.621094 C 302.257812 65.464844 303.59375 63.863281 305.636719 62.992188 C 307.453125 62.21875 309.703125 62.074219 311.960938 62.585938 C 314.222656 63.101562 316.1875 64.203125 317.492188 65.6875 C 318.957031 67.355469 319.46875 69.375 318.980469 71.53125 C 316.847656 80.917969 311.25 87.679688 306.503906 86.601562 " fill-opacity="1" fill-rule="nonzero"/></g></g></g></g><g clip-path="url(#bd4171f309)"><g clip-path="url(#5c65f85ee6)"><g clip-path="url(#3da93d83d6)"><path fill="#f47cb9" d="M 329.6875 75.59375 C 330.984375 75.890625 332.839844 76.757812 334.308594 79.214844 C 335.371094 80.984375 335.964844 83.230469 335.941406 85.375 C 335.917969 87.238281 335.445312 88.917969 334.574219 90.226562 C 333.59375 91.699219 332.183594 92.632812 330.378906 92.996094 C 326.179688 93.84375 321.980469 93.882812 318.550781 93.105469 C 314.542969 92.191406 311.953125 90.242188 311.449219 87.757812 C 310.480469 82.957031 317.394531 77.496094 326.863281 75.585938 C 327.839844 75.386719 328.789062 75.390625 329.6875 75.59375 " fill-opacity="1" fill-rule="nonzero"/><path fill="#f47cb9" d="M 318.539062 93.160156 C 321.851562 93.910156 326.015625 93.933594 330.390625 93.050781 C 338.878906 91.335938 336.972656 77.191406 329.699219 75.539062 C 328.824219 75.339844 327.871094 75.324219 326.851562 75.53125 C 317.339844 77.453125 310.417969 82.929688 311.394531 87.769531 C 311.925781 90.382812 314.648438 92.273438 318.539062 93.160156 Z M 318.5625 93.050781 C 314.574219 92.144531 312.003906 90.210938 311.503906 87.746094 C 310.542969 82.976562 317.4375 77.546875 326.871094 75.640625 C 327.84375 75.445312 328.785156 75.445312 329.675781 75.648438 C 332.003906 76.179688 333.457031 77.894531 334.261719 79.242188 C 335.320312 81.003906 335.910156 83.238281 335.882812 85.371094 C 335.863281 87.226562 335.390625 88.894531 334.527344 90.195312 C 333.558594 91.65625 332.15625 92.582031 330.367188 92.941406 C 326.175781 93.789062 321.984375 93.828125 318.5625 93.050781 " fill-opacity="1" fill-rule="nonzero"/></g></g></g><g clip-path="url(#56d5365b61)"><g clip-path="url(#851383cb66)"><g clip-path="url(#90fec312a4)"><path fill="#f47cb9" d="M 302.085938 88.988281 C 302.804688 89.152344 303.449219 89.453125 304 89.878906 C 305.863281 91.332031 306.503906 94.136719 305.800781 97.769531 C 305.09375 101.417969 303.117188 105.460938 300.238281 109.15625 C 298.546875 111.332031 296.023438 112.167969 293.144531 111.515625 C 289.640625 110.71875 286.386719 107.90625 285.234375 104.671875 C 284.65625 103.058594 284.363281 100.632812 286.226562 98.238281 C 288.699219 95.066406 291.558594 92.492188 294.492188 90.804688 C 297.332031 89.167969 300.03125 88.523438 302.085938 88.988281 " fill-opacity="1" fill-rule="nonzero"/><path fill="#f47cb9" d="M 293.132812 111.570312 C 295.734375 112.160156 298.410156 111.59375 300.285156 109.191406 C 306.246094 101.535156 307.925781 92.871094 304.03125 89.835938 C 303.46875 89.394531 302.816406 89.097656 302.097656 88.933594 C 297.863281 87.972656 291.28125 91.660156 286.183594 98.207031 C 282.089844 103.457031 287.441406 110.277344 293.132812 111.570312 Z M 293.128906 111.570312 L 293.15625 111.460938 C 291.492188 111.082031 289.792969 110.199219 288.371094 108.976562 C 286.9375 107.746094 285.839844 106.207031 285.285156 104.652344 C 284.714844 103.054688 284.421875 100.648438 286.269531 98.273438 C 288.738281 95.105469 291.59375 92.539062 294.519531 90.851562 C 297.347656 89.222656 300.03125 88.582031 302.070312 89.042969 C 302.785156 89.207031 303.421875 89.503906 303.964844 89.925781 C 305.8125 91.363281 306.445312 94.148438 305.746094 97.757812 C 305.039062 101.398438 303.070312 105.433594 300.195312 109.121094 C 298.515625 111.28125 296.015625 112.109375 293.15625 111.460938 L 293.128906 111.570312 " fill-opacity="1" fill-rule="nonzero"/></g></g></g><g clip-path="url(#9be27784fc)"><g clip-path="url(#fb4ca8f240)"><g clip-path="url(#faf8dc8bae)"><path fill="#f47cb9" d="M 290.574219 70.332031 C 291.089844 70.449219 291.605469 70.632812 292.113281 70.882812 C 296.320312 72.9375 299.871094 75.703125 302.105469 78.671875 C 304.335938 81.628906 304.988281 84.425781 303.949219 86.550781 C 302.4375 89.648438 297.464844 90.738281 291.28125 89.332031 C 288.964844 88.808594 286.621094 87.96875 284.3125 86.839844 C 280.152344 84.808594 280.023438 80.261719 281.179688 76.988281 C 281.917969 74.894531 283.257812 72.988281 284.855469 71.757812 C 286.640625 70.378906 288.617188 69.886719 290.574219 70.332031 " fill-opacity="1" fill-rule="nonzero"/><path fill="#f47cb9" d="M 291.269531 89.386719 C 297.304688 90.757812 302.421875 89.808594 304 86.574219 C 306.167969 82.140625 300.855469 75.089844 292.136719 70.832031 C 291.617188 70.578125 291.097656 70.394531 290.585938 70.277344 C 282.539062 68.449219 276.09375 82.886719 284.289062 86.890625 C 286.652344 88.046875 289.027344 88.878906 291.269531 89.386719 Z M 291.292969 89.277344 C 288.984375 88.753906 286.640625 87.917969 284.339844 86.792969 C 282.558594 85.921875 281.351562 84.46875 280.859375 82.59375 C 280.417969 80.925781 280.550781 78.941406 281.230469 77.007812 C 281.964844 74.921875 283.300781 73.027344 284.890625 71.800781 C 286.660156 70.433594 288.621094 69.945312 290.5625 70.386719 C 291.074219 70.503906 291.585938 70.6875 292.089844 70.929688 C 296.289062 72.984375 299.832031 75.746094 302.0625 78.703125 C 304.277344 81.644531 304.929688 84.421875 303.902344 86.527344 C 303.152344 88.058594 301.554688 89.121094 299.285156 89.597656 C 297.050781 90.070312 294.289062 89.960938 291.292969 89.28125 L 291.292969 89.277344 " fill-opacity="1" fill-rule="nonzero"/></g></g></g><g clip-path="url(#6892f53628)"><g clip-path="url(#d9ab9cc444)"><g clip-path="url(#df01aebaad)"><path fill="#e9df3e" d="M 308.507812 82.566406 C 312.0625 83.375 314.296875 86.921875 313.488281 90.476562 C 312.683594 94.03125 309.132812 96.265625 305.578125 95.457031 C 302.027344 94.652344 299.792969 91.101562 300.597656 87.546875 C 301.40625 83.996094 304.953125 81.761719 308.507812 82.566406 " fill-opacity="1" fill-rule="nonzero"/><path fill="#e9df3e" d="M 305.566406 95.511719 C 309.15625 96.328125 312.726562 94.078125 313.542969 90.488281 C 314.359375 86.898438 312.109375 83.328125 308.519531 82.511719 C 304.929688 81.699219 301.359375 83.945312 300.542969 87.535156 C 299.730469 91.125 301.976562 94.695312 305.566406 95.511719 Z M 305.589844 95.402344 C 302.066406 94.601562 299.851562 91.085938 300.652344 87.5625 C 301.453125 84.035156 304.972656 81.820312 308.496094 82.621094 C 312.019531 83.421875 314.234375 86.941406 313.433594 90.464844 C 312.632812 93.988281 309.117188 96.203125 305.589844 95.402344 " fill-opacity="1" fill-rule="nonzero"/></g></g></g></svg>