<svg xmlns="http://www.w3.org/2000/svg" xmlns:xlink="http://www.w3.org/1999/xlink" width="500" zoomAndPan="magnify" viewBox="0 0 375 374.999991" height="500" preserveAspectRatio="xMidYMid meet" version="1.0"><defs><clipPath id="26fb55d2a5"><path d="M 177 201 L 313 201 L 313 348 L 177 348 Z M 177 201 " clip-rule="nonzero"/></clipPath><clipPath id="2b6ced5cc2"><path d="M 346.578125 393.207031 L -44.695312 304.289062 L 28.597656 -18.238281 L 419.871094 70.679688 Z M 346.578125 393.207031 " clip-rule="nonzero"/></clipPath><clipPath id="bef90b766c"><path d="M 346.578125 393.207031 L -44.695312 304.289062 L 28.597656 -18.238281 L 419.871094 70.679688 Z M 346.578125 393.207031 " clip-rule="nonzero"/></clipPath><clipPath id="100e3df283"><path d="M 146 23 L 264 23 L 264 180 L 146 180 Z M 146 23 " clip-rule="nonzero"/></clipPath><clipPath id="35663e25f7"><path d="M 346.578125 393.207031 L -44.695312 304.289062 L 28.597656 -18.238281 L 419.871094 70.679688 Z M 346.578125 393.207031 " clip-rule="nonzero"/></clipPath><clipPath id="d79d9e05e5"><path d="M 346.578125 393.207031 L -44.695312 304.289062 L 28.597656 -18.238281 L 419.871094 70.679688 Z M 346.578125 393.207031 " clip-rule="nonzero"/></clipPath><clipPath id="82f211d567"><path d="M 146 22 L 264 22 L 264 180 L 146 180 Z M 146 22 " clip-rule="nonzero"/></clipPath><clipPath id="6b32e28820"><path d="M 346.578125 393.207031 L -44.695312 304.289062 L 28.597656 -18.238281 L 419.871094 70.679688 Z M 346.578125 393.207031 " clip-rule="nonzero"/></clipPath><clipPath id="e6d836cc8f"><path d="M 346.578125 393.207031 L -44.695312 304.289062 L 28.597656 -18.238281 L 419.871094 70.679688 Z M 346.578125 393.207031 " clip-rule="nonzero"/></clipPath><clipPath id="08a46d862e"><path d="M 238.300781 191.570312 L 126.535156 166.171875 L 161.554688 12.082031 L 273.316406 37.480469 Z M 238.300781 191.570312 " clip-rule="nonzero"/></clipPath><clipPath id="eab7b9cf73"><path d="M 213 107 L 370 107 L 370 223 L 213 223 Z M 213 107 " clip-rule="nonzero"/></clipPath><clipPath id="d0e8cefb41"><path d="M 346.578125 393.207031 L -44.695312 304.289062 L 28.597656 -18.238281 L 419.871094 70.679688 Z M 346.578125 393.207031 " clip-rule="nonzero"/></clipPath><clipPath id="a8186ef0ac"><path d="M 346.578125 393.207031 L -44.695312 304.289062 L 28.597656 -18.238281 L 419.871094 70.679688 Z M 346.578125 393.207031 " clip-rule="nonzero"/></clipPath><clipPath id="fdfcecc3fa"><path d="M 213 106 L 371 106 L 371 224 L 213 224 Z M 213 106 " clip-rule="nonzero"/></clipPath><clipPath id="2a328472a8"><path d="M 346.578125 393.207031 L -44.695312 304.289062 L 28.597656 -18.238281 L 419.871094 70.679688 Z M 346.578125 393.207031 " clip-rule="nonzero"/></clipPath><clipPath id="dc1744c4b9"><path d="M 346.578125 393.207031 L -44.695312 304.289062 L 28.597656 -18.238281 L 419.871094 70.679688 Z M 346.578125 393.207031 " clip-rule="nonzero"/></clipPath><clipPath id="c81b785257"><path d="M 44 192 L 180 192 L 180 338 L 44 338 Z M 44 192 " clip-rule="nonzero"/></clipPath><clipPath id="4d757a0fd6"><path d="M 346.578125 393.207031 L -44.695312 304.289062 L 28.597656 -18.238281 L 419.871094 70.679688 Z M 346.578125 393.207031 " clip-rule="nonzero"/></clipPath><clipPath id="3431305330"><path d="M 346.578125 393.207031 L -44.695312 304.289062 L 28.597656 -18.238281 L 419.871094 70.679688 Z M 346.578125 393.207031 " clip-rule="nonzero"/></clipPath><clipPath id="a867bbf717"><path d="M 44 191 L 181 191 L 181 339 L 44 339 Z M 44 191 " clip-rule="nonzero"/></clipPath><clipPath id="9b04a9f0f9"><path d="M 346.578125 393.207031 L -44.695312 304.289062 L 28.597656 -18.238281 L 419.871094 70.679688 Z M 346.578125 393.207031 " clip-rule="nonzero"/></clipPath><clipPath id="f90e1def65"><path d="M 346.578125 393.207031 L -44.695312 304.289062 L 28.597656 -18.238281 L 419.871094 70.679688 Z M 346.578125 393.207031 " clip-rule="nonzero"/></clipPath><clipPath id="3830bf9644"><path d="M 17 73 L 170 73 L 170 200 L 17 200 Z M 17 73 " clip-rule="nonzero"/></clipPath><clipPath id="c19c2961ef"><path d="M 346.578125 393.207031 L -44.695312 304.289062 L 28.597656 -18.238281 L 419.871094 70.679688 Z M 346.578125 393.207031 " clip-rule="nonzero"/></clipPath><clipPath id="1d73be0e55"><path d="M 346.578125 393.207031 L -44.695312 304.289062 L 28.597656 -18.238281 L 419.871094 70.679688 Z M 346.578125 393.207031 " clip-rule="nonzero"/></clipPath><clipPath id="3b08f5cf8b"><path d="M 144 151 L 229 151 L 229 236 L 144 236 Z M 144 151 " clip-rule="nonzero"/></clipPath><clipPath id="92a7d05e51"><path d="M 346.578125 393.207031 L -44.695312 304.289062 L 28.597656 -18.238281 L 419.871094 70.679688 Z M 346.578125 393.207031 " clip-rule="nonzero"/></clipPath><clipPath id="b9fde4fef6"><path d="M 346.578125 393.207031 L -44.695312 304.289062 L 28.597656 -18.238281 L 419.871094 70.679688 Z M 346.578125 393.207031 " clip-rule="nonzero"/></clipPath><clipPath id="fdb6c9558c"><path d="M 143 151 L 229 151 L 229 236 L 143 236 Z M 143 151 " clip-rule="nonzero"/></clipPath><clipPath id="a970d1b023"><path d="M 346.578125 393.207031 L -44.695312 304.289062 L 28.597656 -18.238281 L 419.871094 70.679688 Z M 346.578125 393.207031 " clip-rule="nonzero"/></clipPath><clipPath id="a162f7f62c"><path d="M 346.578125 393.207031 L -44.695312 304.289062 L 28.597656 -18.238281 L 419.871094 70.679688 Z M 346.578125 393.207031 " clip-rule="nonzero"/></clipPath></defs><g clip-path="url(#26fb55d2a5)"><g clip-path="url(#2b6ced5cc2)"><g clip-path="url(#bef90b766c)"><path fill="#f47cb9" d="M 223.980469 203.082031 C 249.867188 208.964844 279.523438 231.003906 303.3125 262.03125 C 315.015625 277.296875 315.121094 296.359375 303.605469 314.324219 C 296.65625 325.160156 286.203125 334.445312 274.175781 340.46875 C 261.6875 346.722656 248.632812 348.757812 237.421875 346.210938 C 227.96875 344.0625 220.007812 338.839844 213.753906 330.683594 C 176.425781 281.992188 166.144531 226.976562 190.832031 208.050781 C 199.0625 201.742188 210.523438 200.023438 223.980469 203.082031 " fill-opacity="1" fill-rule="nonzero"/><path fill="#f47cb9" d="M 237.34375 346.554688 C 278.890625 355.992188 334.457031 302.078125 303.589844 261.816406 C 279.058594 229.8125 248.929688 208.390625 224.0625 202.738281 C 210.910156 199.75 199.226562 201.171875 190.621094 207.769531 C 165.734375 226.847656 175.96875 281.976562 213.476562 330.902344 C 220.117188 339.566406 228.402344 344.527344 237.34375 346.554688 Z M 237.339844 346.554688 L 237.496094 345.867188 C 228.128906 343.738281 220.238281 338.558594 214.035156 330.472656 C 195.964844 306.898438 183.644531 281.164062 179.347656 258.011719 C 175.082031 235.03125 179.238281 217.390625 191.050781 208.332031 C 199.191406 202.089844 210.554688 200.394531 223.902344 203.429688 C 236.234375 206.230469 249.941406 212.988281 263.535156 222.964844 C 277.574219 233.273438 291.234375 246.855469 303.03125 262.246094 C 309.140625 270.21875 312.097656 279.050781 311.820312 288.5 C 311.570312 296.972656 308.625 305.832031 303.308594 314.128906 C 296.394531 324.914062 285.992188 334.15625 274.019531 340.148438 C 261.605469 346.363281 248.632812 348.394531 237.5 345.867188 L 237.339844 346.554688 " fill-opacity="1" fill-rule="nonzero"/></g></g></g><g clip-path="url(#100e3df283)"><g clip-path="url(#35663e25f7)"><g clip-path="url(#d79d9e05e5)"><path fill="#f47cb9" d="M 217.40625 25.140625 C 231.839844 28.417969 244.378906 35.453125 252.71875 44.949219 C 262.097656 55.625 265.394531 68.570312 262.257812 82.386719 C 248.660156 142.214844 212.917969 185.28125 182.582031 178.386719 C 152.246094 171.496094 138.625 117.210938 152.21875 57.378906 C 155.359375 43.566406 163.929688 33.316406 177 27.742188 C 188.625 22.785156 202.976562 21.859375 217.40625 25.140625 " fill-opacity="1" fill-rule="nonzero"/></g></g></g><g clip-path="url(#82f211d567)"><g clip-path="url(#6b32e28820)"><g clip-path="url(#e6d836cc8f)"><g clip-path="url(#08a46d862e)"><path fill="#f47cb9" d="M 182.503906 178.734375 C 213.082031 185.679688 248.941406 142.578125 262.601562 82.464844 C 269.433594 52.40625 245.167969 31.085938 217.484375 24.792969 C 189.804688 18.503906 158.707031 27.242188 151.875 57.300781 C 138.214844 117.417969 151.925781 171.785156 182.503906 178.734375 Z M 182.660156 178.042969 C 152.511719 171.191406 139.011719 117.097656 152.566406 57.457031 C 155.679688 43.761719 164.175781 33.597656 177.140625 28.066406 C 188.695312 23.140625 202.972656 22.222656 217.328125 25.484375 C 231.6875 28.746094 244.164062 35.746094 252.453125 45.183594 C 261.753906 55.773438 265.023438 68.609375 261.910156 82.308594 C 248.359375 141.945312 212.804688 184.894531 182.660156 178.042969 " fill-opacity="1" fill-rule="nonzero"/></g></g></g></g><g clip-path="url(#eab7b9cf73)"><g clip-path="url(#d0e8cefb41)"><g clip-path="url(#a8186ef0ac)"><path fill="#f47cb9" d="M 329.933594 108.125 C 338.167969 109.996094 349.945312 115.5 359.296875 131.109375 C 366.035156 142.367188 369.808594 156.628906 369.644531 170.246094 C 369.503906 182.089844 366.5 192.75 360.96875 201.078125 C 354.75 210.433594 345.785156 216.351562 334.320312 218.667969 C 307.640625 224.054688 280.957031 224.296875 259.1875 219.351562 C 233.710938 213.5625 217.269531 201.183594 214.082031 185.390625 C 207.921875 154.894531 251.839844 120.207031 311.980469 108.058594 C 318.1875 106.804688 324.230469 106.828125 329.933594 108.125 " fill-opacity="1" fill-rule="nonzero"/></g></g></g><g clip-path="url(#fdfcecc3fa)"><g clip-path="url(#2a328472a8)"><g clip-path="url(#dc1744c4b9)"><path fill="#f47cb9" d="M 259.113281 219.695312 C 280.164062 224.480469 306.601562 224.625 334.390625 219.011719 C 388.328125 208.121094 376.210938 118.277344 330.011719 107.777344 C 324.453125 106.515625 318.402344 106.402344 311.910156 107.710938 C 251.480469 119.917969 207.527344 154.726562 213.734375 185.460938 C 217.085938 202.0625 234.382812 214.078125 259.113281 219.695312 Z M 259.261719 219.003906 C 233.929688 213.25 217.585938 200.972656 214.425781 185.320312 C 208.308594 155.015625 252.101562 120.515625 312.050781 108.402344 C 318.207031 107.160156 324.199219 107.183594 329.855469 108.46875 C 344.652344 111.832031 353.867188 122.734375 358.992188 131.292969 C 365.703125 142.492188 369.457031 156.6875 369.292969 170.238281 C 369.148438 182.019531 366.171875 192.613281 360.675781 200.878906 C 354.511719 210.15625 345.621094 216.023438 334.25 218.320312 C 307.621094 223.699219 280.992188 223.941406 259.265625 219.003906 L 259.261719 219.003906 " fill-opacity="1" fill-rule="nonzero"/></g></g></g><g clip-path="url(#c81b785257)"><g clip-path="url(#4d757a0fd6)"><g clip-path="url(#3431305330)"><path fill="#f47cb9" d="M 154.578125 193.214844 C 159.167969 194.257812 163.257812 196.160156 166.738281 198.875 C 178.589844 208.105469 182.65625 225.90625 178.183594 248.992188 C 173.699219 272.160156 161.152344 297.847656 142.863281 321.324219 C 132.097656 335.144531 116.089844 340.464844 97.789062 336.304688 C 75.527344 331.246094 54.859375 313.371094 47.53125 292.839844 C 43.875 282.589844 42 267.179688 53.84375 251.976562 C 69.558594 231.808594 87.714844 215.472656 106.347656 204.738281 C 124.394531 194.339844 141.523438 190.25 154.578125 193.214844 " fill-opacity="1" fill-rule="nonzero"/></g></g></g><g clip-path="url(#a867bbf717)"><g clip-path="url(#9b04a9f0f9)"><g clip-path="url(#f90e1def65)"><path fill="#f47cb9" d="M 97.710938 336.652344 C 114.253906 340.40625 131.246094 336.8125 143.140625 321.542969 C 181.027344 272.910156 191.691406 217.863281 166.953125 198.59375 C 163.363281 195.796875 159.226562 193.90625 154.65625 192.871094 C 127.753906 186.757812 85.957031 210.1875 53.566406 251.761719 C 27.574219 285.125 61.566406 328.441406 97.710938 336.652344 Z M 97.703125 336.648438 L 97.859375 335.960938 C 87.292969 333.558594 76.496094 327.957031 67.464844 320.191406 C 58.351562 312.355469 51.390625 302.597656 47.863281 292.722656 C 44.238281 282.554688 42.378906 267.269531 54.125 252.195312 C 69.808594 232.0625 87.929688 215.757812 106.523438 205.046875 C 124.496094 194.691406 141.53125 190.613281 154.5 193.558594 C 159.035156 194.589844 163.078125 196.472656 166.519531 199.152344 C 178.261719 208.300781 182.28125 225.976562 177.839844 248.925781 C 173.359375 272.039062 160.839844 297.671875 142.582031 321.109375 C 131.910156 334.8125 116.027344 340.085938 97.867188 335.960938 L 97.703125 336.648438 " fill-opacity="1" fill-rule="nonzero"/></g></g></g><g clip-path="url(#3830bf9644)"><g clip-path="url(#c19c2961ef)"><g clip-path="url(#1d73be0e55)"><path fill="#f47cb9" d="M 81.453125 74.691406 C 84.734375 75.433594 88.019531 76.609375 91.230469 78.179688 C 117.972656 91.242188 140.523438 108.820312 154.722656 127.667969 C 168.875 146.449219 173.035156 164.222656 166.4375 177.722656 C 156.828125 197.386719 125.242188 204.328125 85.960938 195.402344 C 71.246094 192.054688 56.351562 186.726562 41.695312 179.566406 C 15.257812 166.648438 14.445312 137.773438 21.78125 116.972656 C 26.472656 103.675781 34.980469 91.566406 45.128906 83.742188 C 56.46875 74.996094 69.03125 71.867188 81.453125 74.691406 " fill-opacity="1" fill-rule="nonzero"/><path fill="#f47cb9" d="M 85.882812 195.746094 C 124.21875 204.453125 156.722656 198.410156 166.757812 177.878906 C 180.523438 149.707031 146.777344 104.925781 91.390625 77.859375 C 88.074219 76.242188 84.785156 75.082031 81.53125 74.34375 C 30.414062 62.726562 -10.539062 154.4375 41.535156 179.882812 C 56.558594 187.222656 71.621094 192.503906 85.882812 195.746094 Z M 86.035156 195.054688 C 71.351562 191.71875 56.480469 186.398438 41.847656 179.25 C 30.53125 173.71875 22.882812 164.496094 19.738281 152.589844 C 16.9375 141.992188 17.78125 129.382812 22.113281 117.089844 C 26.78125 103.859375 35.25 91.804688 45.34375 84.019531 C 56.601562 75.34375 69.058594 72.234375 81.375 75.035156 C 84.628906 75.773438 87.890625 76.9375 91.078125 78.496094 C 117.769531 91.539062 140.273438 109.074219 154.441406 127.878906 C 168.503906 146.546875 172.65625 164.191406 166.117188 177.566406 C 161.367188 187.289062 151.226562 194.039062 136.785156 197.085938 C 122.601562 200.078125 105.054688 199.375 86.039062 195.054688 L 86.035156 195.054688 " fill-opacity="1" fill-rule="nonzero"/></g></g></g><g clip-path="url(#3b08f5cf8b)"><g clip-path="url(#92a7d05e51)"><g clip-path="url(#b9fde4fef6)"><path fill="#e9df3e" d="M 195.390625 152.417969 C 217.964844 157.550781 232.160156 180.089844 227.03125 202.667969 C 221.898438 225.242188 199.355469 239.4375 176.78125 234.308594 C 154.207031 229.175781 140.011719 206.632812 145.140625 184.058594 C 150.273438 161.480469 172.816406 147.289062 195.390625 152.417969 " fill-opacity="1" fill-rule="nonzero"/></g></g></g><g clip-path="url(#fdb6c9558c)"><g clip-path="url(#a970d1b023)"><g clip-path="url(#a162f7f62c)"><path fill="#e9df3e" d="M 176.703125 234.652344 C 199.507812 239.835938 222.191406 225.546875 227.375 202.746094 C 232.558594 179.941406 218.273438 157.257812 195.46875 152.074219 C 172.667969 146.894531 149.980469 161.175781 144.796875 183.980469 C 139.617188 206.78125 153.902344 229.46875 176.703125 234.652344 Z M 176.859375 233.960938 C 154.472656 228.875 140.402344 206.519531 145.488281 184.136719 C 150.574219 161.75 172.925781 147.675781 195.3125 152.765625 C 217.699219 157.851562 231.773438 180.203125 226.683594 202.589844 C 221.597656 224.972656 199.246094 239.050781 176.859375 233.960938 " fill-opacity="1" fill-rule="nonzero"/></g></g></g></svg>